<svg width="20" height="20" viewBox="0 0 20 20" fill="none" xmlns="http://www.w3.org/2000/svg">
<path d="M14.5833 5.41675H14.5917M5.83332 1.66675H14.1667C16.4678 1.66675 18.3333 3.53223 18.3333 5.83341V14.1667C18.3333 16.4679 16.4678 18.3334 14.1667 18.3334H5.83332C3.53214 18.3334 1.66666 16.4679 1.66666 14.1667V5.83341C1.66666 3.53223 3.53214 1.66675 5.83332 1.66675ZM13.3333 9.47508C13.4362 10.1686 13.3177 10.8769 12.9948 11.4993C12.6719 12.1216 12.1609 12.6263 11.5347 12.9415C10.9084 13.2567 10.1987 13.3664 9.50648 13.255C8.81426 13.1436 8.17479 12.8168 7.67902 12.321C7.18325 11.8253 6.85643 11.1858 6.74505 10.4936C6.63366 9.80138 6.74338 9.09166 7.0586 8.46539C7.37381 7.83913 7.87848 7.3282 8.50081 7.00528C9.12314 6.68237 9.83145 6.56391 10.525 6.66675C11.2324 6.77165 11.8874 7.1013 12.3931 7.607C12.8988 8.11271 13.2284 8.76765 13.3333 9.47508Z" stroke="white" stroke-linecap="round" stroke-linejoin="round"/>
</svg>
