<svg width="39" height="40" viewBox="0 0 39 40" fill="none" xmlns="http://www.w3.org/2000/svg">
<g id="Component 7">
<path id="Arrow 3 (Stroke)" fill-rule="evenodd" clip-rule="evenodd" d="M6.35976 18.0528L11.2583 13.1543C11.5589 12.8537 12.0463 12.8537 12.3469 13.1543L17.2455 18.0528C17.5461 18.3534 17.5461 18.8408 17.2455 19.1414C16.9449 19.442 16.4575 19.442 16.1569 19.1414L12.5724 15.5569L12.5724 24.988H11.0329L11.0329 15.5569L7.44833 19.1414C7.14773 19.442 6.66036 19.442 6.35976 19.1414C6.05916 18.8408 6.05916 18.3534 6.35976 18.0528Z" fill="#39292A"/>
<path id="Arrow 4 (Stroke)" fill-rule="evenodd" clip-rule="evenodd" d="M6.35976 12.4081L11.2583 7.50951C11.5589 7.20891 12.0463 7.20891 12.3469 7.50951L17.2455 12.4081C17.5461 12.7087 17.5461 13.1961 17.2455 13.4967C16.9449 13.7973 16.4575 13.7973 16.1569 13.4967L12.5724 9.91211L12.5724 21.3959H11.0329L11.0329 9.91211L7.44833 13.4967C7.14773 13.7973 6.66036 13.7973 6.35976 13.4967C6.05916 13.1961 6.05916 12.7087 6.35976 12.4081Z" fill="#39292A"/>
<path id="Arrow 5 (Stroke)" fill-rule="evenodd" clip-rule="evenodd" d="M6.35976 24.7239L11.2583 19.8253C11.5589 19.5247 12.0463 19.5247 12.3469 19.8253L17.2455 24.7239C17.5461 25.0245 17.5461 25.5119 17.2455 25.8125C16.9449 26.1131 16.4575 26.1131 16.1569 25.8125L12.5724 22.2279V36.2775H11.0329V22.2279L7.44833 25.8125C7.14773 26.1131 6.66036 26.1131 6.35976 25.8125C6.05916 25.5119 6.05916 25.0245 6.35976 24.7239Z" fill="#39292A"/>
<path id="S" d="M14.7533 31.178H16.1324C16.2607 31.8408 16.4317 32.4823 16.6456 33.1023C16.8808 33.7224 17.1801 34.2676 17.5436 34.738C17.9071 35.2084 18.3561 35.5826 18.8906 35.8606C19.4252 36.1385 20.0773 36.2775 20.847 36.2775C22.3224 36.2775 23.5304 35.8606 24.4712 35.0267C25.412 34.1928 25.8824 33.1451 25.8824 31.8836C25.8824 31.1352 25.7434 30.4938 25.4655 29.9592C25.1875 29.4033 24.824 28.9115 24.375 28.4839C23.926 28.0777 23.4128 27.7035 22.8355 27.3614C22.2582 27.0193 21.6595 26.6665 21.0395 26.303C20.398 25.9609 19.7459 25.5974 19.0831 25.2125C18.4202 24.8063 17.8216 24.3359 17.287 23.8013C16.7525 23.2454 16.3142 22.6147 15.972 21.9091C15.6299 21.1821 15.4589 20.3268 15.4589 19.3433C15.4589 18.1887 15.6406 17.1837 16.0041 16.3285C16.389 15.4732 16.9128 14.7569 17.5757 14.1796C18.2171 13.6237 18.9868 13.2068 19.8849 12.9288C20.7829 12.6295 21.7451 12.4798 22.7714 12.4798C23.1563 12.4798 23.5197 12.5012 23.8618 12.5439C24.204 12.5867 24.5354 12.6295 24.8561 12.6722C25.1768 12.715 25.4975 12.7684 25.8183 12.8326C26.139 12.8967 26.4811 12.9502 26.8446 12.993L27.454 17.6755H26.0748C25.8824 16.414 25.4868 15.4732 24.8882 14.8532C24.3109 14.2331 23.4449 13.9231 22.2903 13.9231C20.815 13.9231 19.7031 14.3293 18.9548 15.1418C18.2278 15.9543 17.8643 16.9485 17.8643 18.1245C17.8643 18.8729 18.0247 19.5464 18.3454 20.1451C18.6661 20.7224 19.0831 21.2462 19.5962 21.7166C20.1094 22.2084 20.6867 22.6467 21.3281 23.0316C21.991 23.4165 22.6645 23.7693 23.3487 24.09C23.9901 24.4321 24.6316 24.7956 25.273 25.1805C25.9145 25.5439 26.4811 25.9716 26.9729 26.4633C27.486 26.9551 27.8923 27.5324 28.1916 28.1953C28.5123 28.8581 28.6727 29.6492 28.6727 30.5686C28.6727 31.7446 28.4375 32.7816 27.9671 33.6796C27.4967 34.5563 26.8873 35.2832 26.139 35.8606C25.3906 36.4592 24.5354 36.9082 23.5732 37.2076C22.611 37.5069 21.6382 37.6566 20.6546 37.6566C19.6711 37.6566 18.773 37.5711 17.9605 37.4C17.1694 37.229 16.3569 36.951 15.523 36.5661L14.7533 31.178Z" fill="#39292A"/>
<path id="Ellipse 1 (Stroke)" fill-rule="evenodd" clip-rule="evenodd" d="M19.5 36.2775C28.5691 36.2775 35.9211 28.9255 35.9211 19.8564C35.9211 10.7873 28.5691 3.43539 19.5 3.43539C10.4309 3.43539 3.07895 10.7873 3.07895 19.8564C3.07895 28.9255 10.4309 36.2775 19.5 36.2775ZM19.5 39.3564C30.2696 39.3564 39 30.626 39 19.8564C39 9.08689 30.2696 0.356438 19.5 0.356438C8.73045 0.356438 0 9.08689 0 19.8564C0 30.626 8.73045 39.3564 19.5 39.3564Z" fill="#442723"/>
</g>
</svg>
