<svg width="69" height="45" viewBox="0 0 69 45" fill="none" xmlns="http://www.w3.org/2000/svg">
<g clip-path="url(#clip0_142_92)">
<path d="M36.951 2.29289C36.5605 1.90237 35.9273 1.90237 35.5368 2.29289L29.1728 8.65685C28.7823 9.04738 28.7823 9.68054 29.1728 10.0711C29.5634 10.4616 30.1965 10.4616 30.587 10.0711L36.2439 4.41421L41.9007 10.0711C42.2913 10.4616 42.9244 10.4616 43.315 10.0711C43.7055 9.68054 43.7055 9.04738 43.315 8.65685L36.951 2.29289ZM37.2439 31L37.2439 3L35.2439 3L35.2439 31L37.2439 31Z" fill="#E5B845"/>
<path d="M36.951 12.2929C36.5605 11.9024 35.9273 11.9024 35.5368 12.2929L29.1728 18.6569C28.7823 19.0474 28.7823 19.6805 29.1728 20.0711C29.5634 20.4616 30.1965 20.4616 30.587 20.0711L36.2439 14.4142L41.9008 20.0711C42.2913 20.4616 42.9244 20.4616 43.315 20.0711C43.7055 19.6805 43.7055 19.0474 43.315 18.6569L36.951 12.2929ZM37.2439 41V13H35.2439V41H37.2439Z" fill="#E5B845"/>
<path d="M36.951 22.2929C36.5605 21.9024 35.9273 21.9024 35.5368 22.2929L29.1728 28.6569C28.7823 29.0474 28.7823 29.6805 29.1728 30.0711C29.5634 30.4616 30.1965 30.4616 30.587 30.0711L36.2439 24.4142L41.9008 30.0711C42.2913 30.4616 42.9244 30.4616 43.315 30.0711C43.7055 29.6805 43.7055 29.0474 43.315 28.6569L36.951 22.2929ZM37.2439 54V23H35.2439V54H37.2439Z" fill="#E5B845"/>
</g>
<g clip-path="url(#clip1_142_92)">
<path d="M61.6339 2.29289C61.2434 1.90237 60.6102 1.90237 60.2197 2.29289L53.8558 8.65685C53.4652 9.04738 53.4652 9.68054 53.8558 10.0711C54.2463 10.4616 54.8794 10.4616 55.27 10.0711L60.9268 4.41421L66.5837 10.0711C66.9742 10.4616 67.6074 10.4616 67.9979 10.0711C68.3884 9.68054 68.3884 9.04738 67.9979 8.65685L61.6339 2.29289ZM61.9268 31L61.9268 3L59.9268 3L59.9268 31L61.9268 31Z" fill="#E5B845"/>
<path d="M61.6339 12.2929C61.2434 11.9024 60.6102 11.9024 60.2197 12.2929L53.8558 18.6569C53.4652 19.0474 53.4652 19.6805 53.8558 20.0711C54.2463 20.4616 54.8794 20.4616 55.27 20.0711L60.9268 14.4142L66.5837 20.0711C66.9742 20.4616 67.6074 20.4616 67.9979 20.0711C68.3884 19.6805 68.3884 19.0474 67.9979 18.6569L61.6339 12.2929ZM61.9268 41V13H59.9268V41H61.9268Z" fill="#E5B845"/>
<path d="M61.6339 22.2929C61.2434 21.9024 60.6102 21.9024 60.2197 22.2929L53.8558 28.6569C53.4652 29.0474 53.4652 29.6805 53.8558 30.0711C54.2463 30.4616 54.8794 30.4616 55.27 30.0711L60.9268 24.4142L66.5837 30.0711C66.9742 30.4616 67.6074 30.4616 67.9979 30.0711C68.3884 29.6805 68.3884 29.0474 67.9979 28.6569L61.6339 22.2929ZM61.9268 54V23H59.9268V54H61.9268Z" fill="#E5B845"/>
</g>
<g clip-path="url(#clip2_142_92)">
<path d="M11.7071 2.29289C11.3166 1.90237 10.6834 1.90237 10.2929 2.29289L3.92893 8.65685C3.53841 9.04738 3.53841 9.68054 3.92893 10.0711C4.31946 10.4616 4.95262 10.4616 5.34314 10.0711L11 4.41421L16.6569 10.0711C17.0474 10.4616 17.6805 10.4616 18.0711 10.0711C18.4616 9.68054 18.4616 9.04738 18.0711 8.65685L11.7071 2.29289ZM12 31L12 3L10 3L10 31L12 31Z" fill="#E5B845"/>
<path d="M11.7071 12.2929C11.3166 11.9024 10.6834 11.9024 10.2929 12.2929L3.92893 18.6569C3.53841 19.0474 3.53841 19.6805 3.92893 20.0711C4.31946 20.4616 4.95262 20.4616 5.34315 20.0711L11 14.4142L16.6569 20.0711C17.0474 20.4616 17.6805 20.4616 18.0711 20.0711C18.4616 19.6805 18.4616 19.0474 18.0711 18.6569L11.7071 12.2929ZM12 41L12 13H10L10 41H12Z" fill="#E5B845"/>
<path d="M11.7071 22.2929C11.3166 21.9024 10.6834 21.9024 10.2929 22.2929L3.92893 28.6569C3.53841 29.0474 3.53841 29.6805 3.92893 30.0711C4.31946 30.4616 4.95262 30.4616 5.34315 30.0711L11 24.4142L16.6569 30.0711C17.0474 30.4616 17.6805 30.4616 18.0711 30.0711C18.4616 29.6805 18.4616 29.0474 18.0711 28.6569L11.7071 22.2929ZM12 54L12 23H10L10 54H12Z" fill="#E5B845"/>
</g>
<defs>
<clipPath id="clip0_142_92">
<rect width="18.5122" height="45" fill="white" transform="translate(25.2439)"/>
</clipPath>
<clipPath id="clip1_142_92">
<rect width="19.0732" height="45" fill="white" transform="translate(49.9268)"/>
</clipPath>
<clipPath id="clip2_142_92">
<rect width="19.0732" height="45" fill="white"/>
</clipPath>
</defs>
</svg>
